# Blender v2.74 (sub 0) OBJ File: ''
# www.blender.org
mtllib box.mtl
o Cube
v 60.000000 -40.000000 -60.000000
v 60.000000 -40.000000 60.000000
v -60.000000 -40.000000 60.000000
v -60.000000 -40.000000 -60.000000
v 60.000000 40.000000 -60.000000
v 60.000000 40.000000 60.000000
v -60.000000 40.000000 60.000000
v -60.000000 40.000000 -60.000000
vn 0.000000 -1.000000 -0.000000
vn 1.000000 0.000000 0.000000
vn -0.000000 0.000000 1.000000
vn -1.000000 -0.000000 -0.000000
vn 0.000000 0.000000 -1.000000
usemtl Material
s off
f 2//1 3//1 4//1
f 5//2 6//2 2//2
f 6//3 7//3 3//3
f 3//4 7//4 8//4
f 1//5 4//5 8//5
f 1//1 2//1 4//1
f 1//2 5//2 2//2
f 2//3 6//3 3//3
f 4//4 3//4 8//4
f 5//5 1//5 8//5
