# Blender v2.74 (sub 0) OBJ File: ''
# www.blender.org
o Box
v 60.000000 80.000000 -60.000000
v 60.000000 80.000000 60.000000
v 60.000000 0.000000 60.000000
v -60.000000 80.000000 60.000000
v -60.000000 0.000000 60.000000
v -60.000000 80.000000 -60.000000
v 60.000000 0.000000 -60.000000
v -60.000000 0.000000 -60.000000
vn 1.000000 0.000000 0.000000
vn 0.000000 0.000000 1.000000
vn -1.000000 0.000000 0.000000
vn 0.000000 0.000000 -1.000000
s 1
f 1//1 2//1 3//1
f 2//2 4//2 5//2
f 5//3 4//3 6//3
f 7//4 8//4 6//4
f 7//1 1//1 3//1
f 3//2 2//2 5//2
f 8//3 5//3 6//3
f 1//4 7//4 6//4
